PathFileType	4	(X/Y/Z)	 s01c0202.trc
DataRate	CameraRate	NumFrames	NumMarkers	Units	OrigDataRate	OrigDataStartFrame	OrigNumFrames
200	200	4	48	mm	200	251	2000
Frame#	Time	racr			lacr			c7			jug			rlel			rdr			llel			ldr			s2			lic			ric			lasi			rasi			rpsi			lpsi			rgt			lgt			rth1			rth2			rth3			rth4			rlfc			rsh1			rsh2			rsh3			rsh4			rlmal			rmmal			rcal			rtoe			rmt5			lth1			lth2			lth4			lth3			llfc			lsh1			lsh2			lsh3			lsh4			llmal			lmmal			lcal			ltoe			lmt5			SBIKE			LBIKE			RBIKE			
		X1	Y1	Z1	X2	Y2	Z2	X3	Y3	Z3	X4	Y4	Z4	X5	Y5	Z5	X6	Y6	Z6	X7	Y7	Z7	X8	Y8	Z8	X9	Y9	Z9	X10	Y10	Z10	X11	Y11	Z11	X12	Y12	Z12	X13	Y13	Z13	X14	Y14	Z14	X15	Y15	Z15	X16	Y16	Z16	X17	Y17	Z17	X18	Y18	Z18	X19	Y19	Z19	X20	Y20	Z20	X21	Y21	Z21	X22	Y22	Z22	X23	Y23	Z23	X24	Y24	Z24	X25	Y25	Z25	X26	Y26	Z26	X27	Y27	Z27	X28	Y28	Z28	X29	Y29	Z29	X30	Y30	Z30	X31	Y31	Z31	X32	Y32	Z32	X33	Y33	Z33	X34	Y34	Z34	X35	Y35	Z35	X36	Y36	Z36	X37	Y37	Z37	X38	Y38	Z38	X39	Y39	Z39	X40	Y40	Z40	X41	Y41	Z41	X42	Y42	Z42	X43	Y43	Z43	X44	Y44	Z44	X45	Y45	Z45	X46	Y46	Z46	X47	Y47	Z47	X48	Y48	Z48	
251	1.2550	450.338305	1351.350776	-112.550747	453.711295	1350.581573	-415.060377	408.983403	1408.537242	-258.848671	430.834018	1249.428325	-264.275847	544.832490	1101.048118	-12.454113	711.830368	895.639202	-34.430828	552.929131	1103.275100	-506.656133	701.741670	896.615054	-447.903828	-91.742720	1148.843797	-245.908380	101.098442	1165.903732	-423.648888	76.711597	1143.575602	-98.368877	77.653819	1108.743331	-395.818997	98.064139	1093.397436	-122.523960	-60.820882	1183.657017	-192.789680	-67.403640	1189.312162	-300.191598	12.359759	1021.804004	-66.493116	20.767682	1049.451158	-455.379895	86.025739	900.065196	-52.115664	133.238286	833.107581	-64.260809	179.283560	757.182417	-82.253422	178.425248	863.599036	-78.128683	210.857959	655.826739	-109.907113	149.609822	555.660063	-74.840608	127.522567	473.809699	-74.961670	95.779960	390.409188	-85.215240	174.912347	458.772541	-109.451996	49.262392	268.784746	-103.703452	105.202245	280.614882	-175.656756	8.100002	240.989588	-161.061064	271.426629	181.699972	-132.536618	160.213695	167.145617	-69.646014	123.651873	984.973206	-456.314813	212.181800	982.007878	-462.060485	216.132963	1036.148627	-452.637963	297.177139	970.578391	-452.695294	403.521183	913.457985	-434.784526	321.785011	835.594414	-455.342363	281.385792	759.751520	-445.039878	238.754816	687.565734	-425.011788	332.061924	737.155087	-417.359291	180.053096	576.208068	-404.912270	208.810447	585.609893	-321.439105	124.657064	539.353001	-363.340551	401.104159	516.146871	-372.801503	295.813835	495.958839	-438.153834	-224.798514	892.668812	-252.934439	-12.747609	84.414015	-456.287414	-21.649812	80.839543	-56.179590	
252	1.2600	450.383580	1351.366236	-112.468643	453.885848	1350.350428	-415.012240	408.584517	1408.818284	-259.252633	431.223136	1249.873937	-264.246499	544.675643	1101.032658	-12.104319	711.730425	895.730099	-34.457597	551.650798	1103.079621	-511.642004	701.312759	896.919568	-447.406665	-92.117895	1149.147687	-245.501674	100.417821	1166.177515	-424.055298	76.845215	1143.955160	-98.471390	76.968620	1109.337083	-395.644977	97.918609	1093.778205	-122.331943	-61.001827	1183.931085	-192.477687	-67.851047	1189.705634	-299.747153	12.330090	1022.034444	-66.180411	20.535412	1049.807603	-454.904469	86.401603	900.614841	-51.950065	133.708235	833.757419	-64.038548	179.809940	757.821905	-82.008248	178.783792	864.252954	-78.160259	211.257825	656.379447	-110.152714	150.097164	556.433101	-74.961424	127.972061	474.485707	-75.071624	96.246162	391.195502	-85.273107	175.357382	459.574020	-109.644543	49.494797	269.525122	-103.644421	105.558265	281.177666	-175.637293	8.399607	241.917429	-161.056584	271.503095	181.315479	-132.560536	160.195822	167.431054	-69.722218	123.678264	985.323332	-455.413768	212.294401	982.285899	-460.683268	216.310792	1036.354074	-451.389496	297.058298	970.610937	-451.351293	403.134897	913.934592	-432.987289	321.753407	835.825038	-453.962015	281.466382	759.884859	-443.981503	238.925330	687.599005	-424.398893	332.131865	737.318140	-416.316003	180.422745	575.994555	-404.840211	209.031146	585.334901	-321.269475	125.051715	539.103020	-363.308847	401.356084	516.023568	-372.884338	296.088517	495.832866	-438.257703	-224.786837	892.661908	-252.944848	-12.753753	84.443129	-456.268736	-21.643897	80.843549	-56.181567	
253	1.2650	450.431414	1351.325875	-112.365093	454.010259	1350.168435	-415.368506	408.236129	1409.036694	-259.807012	431.613843	1250.148491	-264.144405	544.497884	1101.002004	-11.702887	711.946643	895.793093	-35.052618	550.444454	1102.617958	-516.824215	700.896245	897.436363	-446.728990	-92.550544	1149.476905	-245.026235	99.523844	1166.346468	-424.405589	76.965974	1144.390980	-98.513094	76.375204	1109.809370	-395.388432	97.779485	1094.163768	-122.111394	-60.573069	1183.802184	-192.438901	-68.126134	1189.961016	-299.426652	12.291738	1022.297816	-65.863644	20.230944	1050.212156	-454.418434	86.886987	901.267739	-51.738973	134.262756	834.380932	-63.882204	180.422470	758.637165	-81.783073	179.268782	864.976761	-78.157542	211.778045	657.142094	-110.444822	150.704877	557.183961	-75.082976	128.515454	475.318621	-75.294441	96.804458	392.047640	-85.379233	175.808296	460.366073	-109.849814	49.790545	270.338436	-103.594721	105.901778	281.799943	-175.667749	8.793758	243.096900	-161.147553	271.604943	180.971210	-132.580174	160.174174	167.791737	-69.839196	123.668318	985.688000	-454.430056	212.343004	982.495847	-459.182869	216.349585	1036.638899	-450.000206	297.178748	970.855587	-449.114979	402.831841	914.285739	-431.003421	321.668645	836.079256	-452.478124	281.538740	760.025323	-442.934768	239.177346	687.594780	-423.742205	332.146835	737.562079	-415.089050	180.845743	575.766398	-404.733683	209.304157	585.050695	-321.037967	125.482404	538.821259	-363.214232	401.679359	515.856272	-372.938015	296.393081	495.696465	-438.321092	-224.803525	892.644789	-252.901609	-12.747392	84.441194	-456.290836	-21.649570	80.862042	-56.212884	
254	1.2700	450.467692	1351.308149	-112.362938	454.085097	1350.004432	-416.119624	407.935986	1409.153459	-260.307368	432.048695	1250.569343	-263.590158	544.340668	1100.985102	-11.219026	711.919996	895.921852	-35.285769	549.201922	1101.929171	-521.972134	700.589318	898.161679	-445.870556	-92.949362	1149.881281	-244.512126	98.577067	1166.645293	-424.815471	77.063098	1144.785578	-98.541589	75.689650	1110.350804	-394.656161	97.569468	1094.733500	-121.786787	-60.758770	1184.185030	-191.942685	-68.590316	1190.382868	-298.823723	12.246262	1022.599728	-65.470117	19.907308	1050.772596	-453.905216	87.352642	902.027350	-51.569138	134.852999	835.225758	-63.749072	181.103642	759.427111	-81.680386	179.780609	865.920660	-78.114009	212.371581	657.925050	-110.844377	151.354400	558.167483	-75.300475	129.190323	476.337864	-75.491850	97.394303	393.037591	-85.516579	176.371593	461.364562	-110.202627	50.166578	271.184297	-103.529558	106.262190	282.506712	-175.735688	9.253788	244.256473	-161.240511	271.721119	180.613222	-132.566390	160.171183	168.180281	-69.953222	123.616248	986.070724	-453.365595	212.388718	982.763346	-457.549117	216.381723	1036.923022	-448.523208	297.051625	971.055106	-447.119105	402.453142	914.804862	-428.912248	321.623648	836.361121	-450.802811	281.601175	760.163648	-441.777571	239.444688	687.627418	-423.051915	332.265349	737.784381	-413.784163	181.276845	575.533869	-404.583737	209.761036	584.714398	-320.673667	125.928453	538.534040	-363.086966	402.005936	515.657923	-373.049292	296.677896	495.521752	-438.375593	-224.791848	892.657847	-252.871656	-12.742495	84.442074	-456.284762	-21.648940	80.855299	-56.194870	
